<svg width="26" height="26" viewBox="0 0 26 26" fill="none" xmlns="http://www.w3.org/2000/svg">
<path d="M19.0704 16.876C18.8632 16.876 18.6645 16.7937 18.518 16.6472C18.3715 16.5006 18.2892 16.3019 18.2892 16.0947V8.60514L7.64333 19.251C7.54784 19.3538 7.42638 19.429 7.29175 19.4686C7.15711 19.5082 7.01429 19.5107 6.87833 19.476C6.74237 19.4412 6.6183 19.3704 6.51919 19.2711C6.42009 19.1717 6.34962 19.0474 6.31521 18.9114C6.2804 18.7756 6.28283 18.6329 6.32224 18.4984C6.36165 18.3638 6.43659 18.2424 6.53917 18.1468L17.185 7.50098H9.69542C9.48822 7.50098 9.2895 7.41867 9.14299 7.27215C8.99648 7.12564 8.91417 6.92693 8.91417 6.71973C8.91417 6.51253 8.99648 6.31381 9.14299 6.1673C9.2895 6.02079 9.48822 5.93848 9.69542 5.93848H19.0704C19.2776 5.93848 19.4763 6.02079 19.6228 6.1673C19.7694 6.31381 19.8517 6.51253 19.8517 6.71973V16.0947C19.8517 16.3019 19.7694 16.5006 19.6228 16.6472C19.4763 16.7937 19.2776 16.876 19.0704 16.876Z" fill="black"/>
</svg>
