<svg width="44" height="45" viewBox="0 0 44 45" fill="none" xmlns="http://www.w3.org/2000/svg">
<g clip-path="url(#clip0_1_134)">
<path d="M22 40.4407C21.5074 40.443 21.0211 40.3296 20.5804 40.1096C20.1397 39.8895 19.7568 39.569 19.4627 39.1738L10.1842 26.8135C8.64897 24.6485 7.73865 22.1031 7.55278 19.4556C7.36691 16.8081 7.91265 14.1604 9.13031 11.8022C10.348 9.444 12.1907 7.46603 14.4568 6.08462C16.723 4.70322 19.3254 3.97158 21.9795 3.96973C24.6335 3.96788 27.2369 4.69588 29.5051 6.07411C31.7732 7.45235 33.6186 9.42774 34.8396 11.7843C36.0605 14.1408 36.61 16.7877 36.4278 19.4354C36.2456 22.0832 35.3389 24.6299 33.8067 26.797L24.5392 39.1702C24.2451 39.566 23.862 39.8873 23.421 40.1079C22.9799 40.3286 22.4932 40.4426 22 40.4407ZM21.9853 5.85115C18.8867 5.84142 15.8952 6.98432 13.5923 9.05765C11.2831 11.1196 9.8113 13.9577 9.45644 17.0332C9.10158 20.1086 9.88833 23.2073 11.6673 25.741L20.9275 38.0738C21.0517 38.2406 21.2132 38.3759 21.3992 38.4688C21.5851 38.5618 21.7903 38.6099 21.9982 38.6091C22.2065 38.6094 22.4121 38.5612 22.5985 38.4683C22.785 38.3754 22.9473 38.2403 23.0725 38.0738L32.3198 25.7282C33.5816 23.9427 34.3571 21.8598 34.5703 19.684C34.7834 17.5082 34.4269 15.3143 33.5357 13.318C32.6445 11.3216 31.2493 9.59145 29.4872 8.29743C27.725 7.00342 25.6566 6.19008 23.485 5.93732C22.9871 5.88045 22.4864 5.85169 21.9853 5.85115Z" fill="black"/>
<path d="M22 23.1467C21.0935 23.1467 20.2074 22.8778 19.4536 22.3742C18.6999 21.8706 18.1125 21.1548 17.7656 20.3173C17.4187 19.4798 17.3279 18.5582 17.5047 17.6692C17.6816 16.7801 18.1181 15.9634 18.7591 15.3224C19.4001 14.6814 20.2168 14.2449 21.1058 14.0681C21.9949 13.8912 22.9165 13.982 23.754 14.3289C24.5915 14.6758 25.3073 15.2632 25.8109 16.017C26.3145 16.7707 26.5833 17.6568 26.5833 18.5633C26.5833 19.7789 26.1005 20.9447 25.2409 21.8042C24.3814 22.6638 23.2156 23.1467 22 23.1467ZM22 15.8133C21.4561 15.8133 20.9244 15.9746 20.4722 16.2768C20.02 16.5789 19.6675 17.0084 19.4593 17.5109C19.2512 18.0134 19.1967 18.5664 19.3028 19.0998C19.409 19.6333 19.6709 20.1233 20.0555 20.5079C20.4401 20.8925 20.9301 21.1544 21.4635 21.2605C21.997 21.3666 22.5499 21.3121 23.0524 21.104C23.5549 20.8958 23.9844 20.5434 24.2866 20.0911C24.5887 19.6389 24.75 19.1072 24.75 18.5633C24.75 17.834 24.4603 17.1345 23.9446 16.6188C23.4288 16.103 22.7294 15.8133 22 15.8133Z" fill="black"/>
</g>
<rect x="1" y="1.22998" width="42" height="42" rx="9" stroke="#CBC9C9" stroke-width="2"/>
<defs>
<clipPath id="clip0_1_134">
<rect y="0.22998" width="44" height="44" rx="10" fill="white"/>
</clipPath>
</defs>
</svg>
