<svg width="44" height="45" viewBox="0 0 44 45" fill="none" xmlns="http://www.w3.org/2000/svg">
<g clip-path="url(#clip0_1_144)">
<path d="M10.0488 3.8823C9.88642 3.67347 9.6815 3.50157 9.44761 3.37802C9.21373 3.25447 8.95624 3.1821 8.69223 3.16571C8.42823 3.14933 8.16376 3.1893 7.9164 3.28298C7.66903 3.37666 7.44443 3.5219 7.25751 3.70905L4.41401 6.5553C3.08576 7.8863 2.59626 9.77005 3.17651 11.4228C5.58751 18.2624 9.50468 24.4727 14.6385 29.5948C19.7606 34.7286 25.971 38.6458 32.8105 41.0568C34.4633 41.6371 36.347 41.1476 37.678 39.8193L40.5215 36.9758C40.7087 36.7889 40.8539 36.5643 40.9476 36.3169C41.0413 36.0695 41.0812 35.8051 41.0648 35.5411C41.0485 35.2771 40.9761 35.0196 40.8525 34.7857C40.729 34.5518 40.5571 34.3469 40.3483 34.1846L34.004 29.2511C33.7807 29.0784 33.5212 28.9585 33.245 28.9004C32.9688 28.8423 32.6829 28.8475 32.409 28.9156L26.3865 30.4198C25.5826 30.6194 24.7407 30.608 23.9424 30.3869C23.1441 30.1658 22.4164 29.7423 21.8298 29.1576L15.0758 22.4008C14.4905 21.8144 14.0666 21.0868 13.8449 20.2885C13.6233 19.4902 13.6115 18.6482 13.8108 17.8441L15.3178 11.8216C15.3858 11.5476 15.391 11.2618 15.3329 10.9856C15.2748 10.7093 15.1549 10.4499 14.9823 10.2266L10.0488 3.8823ZM5.18126 1.63555C5.66249 1.15416 6.24063 0.780662 6.87729 0.539847C7.51395 0.299032 8.19455 0.196415 8.87391 0.238809C9.55326 0.281204 10.2158 0.467641 10.8176 0.785739C11.4194 1.10384 11.9466 1.54632 12.3643 2.0838L17.2978 8.4253C18.2025 9.58855 18.5215 11.1038 18.164 12.5338L16.6598 18.5563C16.5825 18.8683 16.587 19.1949 16.6727 19.5046C16.7585 19.8143 16.9226 20.0967 17.1493 20.3246L23.906 27.0813C24.1341 27.3084 24.417 27.4728 24.7272 27.5586C25.0375 27.6443 25.3646 27.6485 25.677 27.5708L31.6968 26.0666C32.4025 25.8911 33.1389 25.8779 33.8505 26.028C34.5621 26.178 35.2304 26.4874 35.8053 26.9328L42.1468 31.8663C44.4265 33.6401 44.6355 37.0088 42.595 39.0466L39.7515 41.8901C37.7165 43.9251 34.675 44.8188 31.8398 43.8206C24.5816 41.2702 17.9922 37.1154 12.5623 31.6656C7.11278 26.2364 2.95802 19.648 0.407257 12.3908C-0.588243 9.5583 0.305507 6.51405 2.34051 4.47905L5.18126 1.63555Z" fill="black"/>
</g>
<rect x="1" y="1.22998" width="42" height="42" rx="9" stroke="#CBC9C9" stroke-width="2"/>
<defs>
<clipPath id="clip0_1_144">
<rect y="0.22998" width="44" height="44" rx="10" fill="white"/>
</clipPath>
</defs>
</svg>
