<svg width="56" height="81" viewBox="0 0 56 81" fill="none" xmlns="http://www.w3.org/2000/svg">
<path d="M44.255 0.470016C44.7444 0.753708 45.1231 1.19497 45.3292 1.7217C45.5354 2.24844 45.5568 2.82952 45.39 3.37002L36.385 32.63H53C53.4883 32.6298 53.9659 32.7726 54.374 33.0408C54.782 33.3089 55.1026 33.6907 55.2962 34.139C55.4898 34.5872 55.5478 35.0824 55.4632 35.5633C55.3786 36.0442 55.155 36.4897 54.82 36.845L14.82 79.345C14.433 79.7566 13.918 80.0249 13.3589 80.1063C12.7998 80.1877 12.2297 80.0773 11.7414 79.7931C11.2531 79.5089 10.8754 79.0678 10.67 78.5415C10.4645 78.0152 10.4434 77.4348 10.61 76.895L19.615 47.63H3.00002C2.51175 47.6302 2.0341 47.4874 1.62605 47.2193C1.218 46.9511 0.897406 46.5693 0.703846 46.1211C0.510286 45.6728 0.452234 45.1776 0.536854 44.6968C0.621475 44.2159 0.845063 43.7703 1.18002 43.415L41.18 0.915016C41.5666 0.504012 42.0808 0.235859 42.6391 0.154159C43.1974 0.0724588 43.7669 0.182016 44.255 0.465016V0.470016ZM8.78502 42.63H23C23.3913 42.6299 23.7771 42.7217 24.1264 42.8979C24.4757 43.0741 24.7788 43.3298 25.0113 43.6445C25.2437 43.9592 25.3991 44.324 25.4649 44.7097C25.5307 45.0953 25.505 45.4911 25.39 45.865L18.55 68.08L47.21 37.63H33C32.6088 37.6301 32.223 37.5383 31.8737 37.3621C31.5243 37.186 31.2213 36.9302 30.9888 36.6156C30.7563 36.3009 30.6009 35.936 30.5351 35.5504C30.4693 35.1647 30.495 34.769 30.61 34.395L37.45 12.18L8.78502 42.63Z" fill="#01510B"/>
</svg>
