<svg width="56" height="76" viewBox="0 0 56 76" fill="none" xmlns="http://www.w3.org/2000/svg">
<path d="M55.69 28.13C55.6928 23.4956 54.5243 18.9357 52.293 14.8738C50.0618 10.8119 46.8403 7.37975 42.9276 4.89613C39.0149 2.41251 34.538 0.957994 29.9128 0.667669C25.2875 0.377343 20.6639 1.26063 16.4714 3.23549C12.2788 5.21034 8.65338 8.21271 5.93175 11.9637C3.21013 15.7147 1.4806 20.0927 0.903823 24.6911C0.327043 29.2894 0.921714 33.9589 2.6326 38.2659C4.34349 42.5729 7.1151 46.3777 10.69 49.3269V73.13C10.6897 73.5563 10.7984 73.9757 11.0059 74.3482C11.2133 74.7207 11.5126 75.0339 11.8753 75.2581C12.2379 75.4824 12.6519 75.6101 13.0778 75.6292C13.5037 75.6484 13.9275 75.5583 14.3088 75.3675L28.19 68.4425L42.0744 75.3831C42.4225 75.5497 42.8041 75.6341 43.19 75.63C43.8531 75.63 44.4889 75.3666 44.9578 74.8978C45.4266 74.4289 45.69 73.793 45.69 73.13V49.3269C48.8179 46.7507 51.3367 43.514 53.0657 39.8492C54.7946 36.1843 55.6909 32.1822 55.69 28.13ZM5.69001 28.13C5.69001 23.6799 7.00961 19.3298 9.48194 15.6296C11.9543 11.9295 15.4683 9.04566 19.5796 7.34269C23.691 5.63972 28.215 5.19414 32.5795 6.06231C36.9441 6.93048 40.9532 9.07339 44.0999 12.2201C47.2466 15.3668 49.3895 19.3759 50.2577 23.7404C51.1258 28.105 50.6803 32.629 48.9773 36.7404C47.2743 40.8517 44.3904 44.3657 40.6903 46.838C36.9902 49.3104 32.6401 50.63 28.19 50.63C22.2247 50.6234 16.5055 48.2507 12.2874 44.0326C8.06928 39.8144 5.69662 34.0953 5.69001 28.13ZM40.69 69.0862L29.3056 63.3956C28.9583 63.2218 28.5753 63.1313 28.1869 63.1313C27.7985 63.1313 27.4155 63.2218 27.0681 63.3956L15.69 69.0862V52.6206C19.5599 54.5986 23.8439 55.6299 28.19 55.6299C32.5361 55.6299 36.8201 54.5986 40.69 52.6206V69.0862ZM28.19 45.63C31.6512 45.63 35.0346 44.6036 37.9125 42.6807C40.7903 40.7578 43.0334 38.0246 44.3579 34.8269C45.6824 31.6292 46.029 28.1106 45.3538 24.7159C44.6785 21.3212 43.0118 18.203 40.5644 15.7556C38.117 13.3082 34.9988 11.6415 31.6041 10.9662C28.2094 10.291 24.6908 10.6376 21.493 11.9621C18.2953 13.2866 15.5622 15.5296 13.6393 18.4075C11.7164 21.2854 10.69 24.6688 10.69 28.13C14.5814 28.2881 18.4146 27.145 21.5838 24.8813C24.753 22.6176 27.0775 19.3623 28.19 15.63V45.63Z" fill="#01510B"/>
</svg>
