<svg width="75" height="68" viewBox="0 0 75 68" fill="none" xmlns="http://www.w3.org/2000/svg">
<path d="M38.2634 60.2967C37.6634 60.8967 36.5967 60.9967 35.8967 60.2967C35.5844 59.982 35.4092 59.5567 35.4092 59.1134C35.4092 58.6701 35.5844 58.2447 35.8967 57.93L47.1967 46.63L42.4967 41.93L31.1967 53.23C30.5634 53.8967 29.4967 53.8634 28.83 53.23C28.5178 52.9154 28.3426 52.49 28.3426 52.0467C28.3426 51.6034 28.5178 51.178 28.83 50.8634L40.13 39.5634L35.43 34.8634L24.13 46.1634C23.53 46.7634 22.4634 46.8634 21.7634 46.1634C21.4582 45.845 21.2878 45.421 21.2878 44.98C21.2878 44.539 21.4582 44.1151 21.7634 43.7967L33.0634 32.4967L28.33 27.7967L17.03 39.0967C16.43 39.6967 15.3634 39.7967 14.6634 39.0967C14.3582 38.7783 14.1878 38.3544 14.1878 37.9134C14.1878 37.4724 14.3582 37.0484 14.6634 36.73L29.2634 22.13L35.4967 28.33C38.6634 31.4967 44.13 31.4634 47.2967 28.33C50.5634 25.0634 50.5634 19.7967 47.2967 16.53L41.0967 10.33L42.03 9.3967C44.63 6.7967 48.8634 6.7967 51.4634 9.3967L65.5967 23.53C68.1967 26.13 68.1967 30.3634 65.5967 32.9634L38.2634 60.2967ZM70.2967 37.6967C72.7939 35.1923 74.1962 31.8 74.1962 28.2634C74.1962 24.7267 72.7939 21.3344 70.2967 18.83L56.1634 4.6967C53.659 2.19953 50.2667 0.797241 46.73 0.797241C43.1934 0.797241 39.8011 2.19953 37.2967 4.6967L36.3634 5.63003L35.43 4.6967C32.9257 2.19953 29.5333 0.797241 25.9967 0.797241C22.4601 0.797241 19.0677 2.19953 16.5634 4.6967L4.76336 16.4967C2.50836 18.744 1.1338 21.7253 0.889157 24.8995C0.644517 28.0737 1.54601 31.2304 3.43002 33.7967L8.26336 28.9634C7.619 27.7052 7.39121 26.2749 7.6129 24.8788C7.83459 23.4828 8.49428 22.1933 9.49669 21.1967L21.2967 9.3967C23.8967 6.7967 28.13 6.7967 30.73 9.3967L42.5967 21.2634C43.1967 21.8634 43.2967 22.93 42.5967 23.63C41.8967 24.33 40.83 24.23 40.23 23.63L29.2634 12.6967L9.93002 31.9967C6.66336 35.23 6.66336 40.53 9.93002 43.7967C11.23 45.0967 12.8967 45.8967 14.6634 46.13C14.8968 47.9225 15.7164 49.5874 16.9945 50.8655C18.2727 52.1437 19.9376 52.9633 21.73 53.1967C21.9634 54.9891 22.7831 56.6541 24.0612 57.9322C25.3393 59.2103 27.0043 60.0299 28.7967 60.2634C29.03 62.0634 29.83 63.6967 31.13 64.9967C32.6967 66.5634 34.7967 67.43 37.03 67.43C39.2634 67.43 41.3634 66.5634 42.93 64.9967L70.2967 37.6967Z" fill="#01510B"/>
</svg>
